<?xml version="1.0" standalone="no"?>
<!DOCTYPE svg PUBLIC "-//W3C//DTD SVG 1.1//EN"
"http://www.w3.org/Graphics/SVG/1.1/DTD/svg11.dtd">

<svg width="456" height="322" view_box="0 0 456 322"
xmlns="http://www.w3.org/2000/svg"
xmlns:link="http://www.w3.org/1999/xlink">\n\n<desc>Généré par Mocodo 2.3.7 le Wed, 20 Jan 2021 00:18:18</desc>

<rect id="frame" x="0" y="0" width="456" height="322" fill="#f7f7f7" stroke="none" stroke-width="0"/>

<!-- Association POSSEDE -->
<line x1="61" y1="161" x2="181" y2="161" stroke="#d6604d" stroke-width="2"/>
<text x="117" y="178.0" fill="#2166ac" font-family="Verdana" font-size="12">1,N</text>
<line x1="291" y1="161" x2="181" y2="161" stroke="#d6604d" stroke-width="2"/>
<text x="231" y="178.0" fill="#2166ac" font-family="Verdana" font-size="12">1,1</text>
<g id="association-POSSEDE">
	<path d="M 204 136 a 14 14 90 0 1 14 14 V 161 h -74 V 150 a 14 14 90 0 1 14 -14" fill="#f4a582" stroke="#f4a582" stroke-width="0"/>
	<path d="M 218 161.0 v 11 a 14 14 90 0 1 -14 14 H 158 a 14 14 90 0 1 -14 -14 V 161.0 H 74" fill="#fddbc7" stroke="#fddbc7" stroke-width="0"/>
	<rect x="144" y="136" width="74" height="50" fill="none" rx="14" stroke="#d6604d" stroke-width="2"/>
	<line x1="144" y1="161" x2="218" y2="161" stroke="#d6604d" stroke-width="1"/>
	<text x="151" y="153.7" fill="#000000" font-family="Verdana" font-size="12">POSSEDE</text>
</g>

<!-- Association PEUT AVOIR -->
<line x1="61" y1="161" x2="61" y2="279" stroke="#d6604d" stroke-width="2"/>
<text x="66.0" y="246" fill="#2166ac" font-family="Verdana" font-size="12">0,N</text>
<line x1="181" y1="279" x2="61" y2="279" stroke="#d6604d" stroke-width="2"/>
<text x="120" y="296.0" fill="#2166ac" font-family="Verdana" font-size="12">1,1</text>
<g id="association-PEUT AVOIR">
	<path d="M 92 254 a 14 14 90 0 1 14 14 V 279 h -90 V 268 a 14 14 90 0 1 14 -14" fill="#f4a582" stroke="#f4a582" stroke-width="0"/>
	<path d="M 106 279.0 v 11 a 14 14 90 0 1 -14 14 H 30 a 14 14 90 0 1 -14 -14 V 279.0 H 90" fill="#fddbc7" stroke="#fddbc7" stroke-width="0"/>
	<rect x="16" y="254" width="90" height="50" fill="none" rx="14" stroke="#d6604d" stroke-width="2"/>
	<line x1="16" y1="279" x2="106" y2="279" stroke="#d6604d" stroke-width="1"/>
	<text x="23" y="271.7" fill="#000000" font-family="Verdana" font-size="12">PEUT AVOIR</text>
</g>

<!-- Association APPARTIENT A -->
<line x1="181" y1="43" x2="61" y2="43" stroke="#d6604d" stroke-width="2"/>
<text x="132" y="60.0" fill="#2166ac" font-family="Verdana" font-size="12">0,N</text>
<line x1="61" y1="161" x2="61" y2="43" stroke="#d6604d" stroke-width="2"/>
<text x="66.0" y="85" fill="#2166ac" font-family="Verdana" font-size="12">1,1</text>
<g id="association-APPARTIENT A">
	<path d="M 99 18 a 14 14 90 0 1 14 14 V 43 h -104 V 32 a 14 14 90 0 1 14 -14" fill="#f4a582" stroke="#f4a582" stroke-width="0"/>
	<path d="M 113 43.0 v 11 a 14 14 90 0 1 -14 14 H 23 a 14 14 90 0 1 -14 -14 V 43.0 H 104" fill="#fddbc7" stroke="#fddbc7" stroke-width="0"/>
	<rect x="9" y="18" width="104" height="50" fill="none" rx="14" stroke="#d6604d" stroke-width="2"/>
	<line x1="9" y1="43" x2="113" y2="43" stroke="#d6604d" stroke-width="1"/>
	<text x="16" y="35.7" fill="#000000" font-family="Verdana" font-size="12">APPARTIENT A</text>
</g>

<!-- Association DEPEND DE -->
<line x1="181" y1="279" x2="291" y2="279" stroke="#d6604d" stroke-width="2"/>
<text x="221" y="296.0" fill="#2166ac" font-family="Verdana" font-size="12">1,1</text>
<line x1="405" y1="279" x2="291" y2="279" stroke="#d6604d" stroke-width="2"/>
<text x="339" y="296.0" fill="#2166ac" font-family="Verdana" font-size="12">0,N</text>
<g id="association-DEPEND DE">
	<path d="M 320 254 a 14 14 90 0 1 14 14 V 279 h -86 V 268 a 14 14 90 0 1 14 -14" fill="#f4a582" stroke="#f4a582" stroke-width="0"/>
	<path d="M 334 279.0 v 11 a 14 14 90 0 1 -14 14 H 262 a 14 14 90 0 1 -14 -14 V 279.0 H 86" fill="#fddbc7" stroke="#fddbc7" stroke-width="0"/>
	<rect x="248" y="254" width="86" height="50" fill="none" rx="14" stroke="#d6604d" stroke-width="2"/>
	<line x1="248" y1="279" x2="334" y2="279" stroke="#d6604d" stroke-width="1"/>
	<text x="255" y="271.7" fill="#000000" font-family="Verdana" font-size="12">DEPEND DE</text>
</g>

<!-- Association CONCERNE -->
<line x1="291" y1="161" x2="405" y2="161" stroke="#d6604d" stroke-width="2"/>
<text x="330" y="178.0" fill="#2166ac" font-family="Verdana" font-size="12">1,1</text>
<line x1="405" y1="279" x2="405" y2="161" stroke="#d6604d" stroke-width="2"/>
<text x="410.0" y="237" fill="#2166ac" font-family="Verdana" font-size="12">1,N</text>
<g id="association-CONCERNE">
	<path d="M 433 136 a 14 14 90 0 1 14 14 V 161 h -84 V 150 a 14 14 90 0 1 14 -14" fill="#f4a582" stroke="#f4a582" stroke-width="0"/>
	<path d="M 447 161.0 v 11 a 14 14 90 0 1 -14 14 H 377 a 14 14 90 0 1 -14 -14 V 161.0 H 84" fill="#fddbc7" stroke="#fddbc7" stroke-width="0"/>
	<rect x="363" y="136" width="84" height="50" fill="none" rx="14" stroke="#d6604d" stroke-width="2"/>
	<line x1="363" y1="161" x2="447" y2="161" stroke="#d6604d" stroke-width="1"/>
	<text x="370" y="153.7" fill="#000000" font-family="Verdana" font-size="12">CONCERNE</text>
</g>

<!-- Entity NOTICE -->
<g id="entity-NOTICE">
	<g id="frame-NOTICE">
		<rect x="257" y="136" width="68" height="25" fill="#92c5de" stroke="#92c5de" stroke-width="0"/>
		<rect x="257" y="161.0" width="68" height="25" fill="#d1e5f0" stroke="#d1e5f0" stroke-width="0"/>
		<rect x="257" y="136" width="68" height="50" fill="none" stroke="#4393c3" stroke-width="2"/>
		<line x1="257" y1="161" x2="325" y2="161" stroke="#4393c3" stroke-width="1"/>
	</g>
	<text x="267" y="153.7" fill="#000000" font-family="Verdana" font-size="12">NOTICE</text>
	<text x="262" y="178.8" fill="#000000" font-family="Verdana" font-size="12">comment</text>
</g>

<!-- Entity HOUSING -->
<g id="entity-HOUSING">
	<g id="frame-HOUSING">
		<rect x="366" y="245" width="78" height="25" fill="#92c5de" stroke="#92c5de" stroke-width="0"/>
		<rect x="366" y="270.0" width="78" height="43" fill="#d1e5f0" stroke="#d1e5f0" stroke-width="0"/>
		<rect x="366" y="245" width="78" height="68" fill="none" stroke="#4393c3" stroke-width="2"/>
		<line x1="366" y1="270" x2="444" y2="270" stroke="#4393c3" stroke-width="1"/>
	</g>
	<text x="375" y="262.7" fill="#000000" font-family="Verdana" font-size="12">HOUSING</text>
	<text x="371" y="287.8" fill="#000000" font-family="Verdana" font-size="12">description</text>
	<text x="371" y="304.8" fill="#000000" font-family="Verdana" font-size="12">price</text>
</g>

<!-- Entity ROLE -->
<g id="entity-ROLE">
	<g id="frame-ROLE">
		<rect x="159" y="9" width="44" height="25" fill="#92c5de" stroke="#92c5de" stroke-width="0"/>
		<rect x="159" y="34.0" width="44" height="43" fill="#d1e5f0" stroke="#d1e5f0" stroke-width="0"/>
		<rect x="159" y="9" width="44" height="68" fill="none" stroke="#4393c3" stroke-width="2"/>
		<line x1="159" y1="34" x2="203" y2="34" stroke="#4393c3" stroke-width="1"/>
	</g>
	<text x="164" y="26.7" fill="#000000" font-family="Verdana" font-size="12">ROLE</text>
	<text x="164" y="51.8" fill="#000000" font-family="Verdana" font-size="12">label</text>
</g>

<!-- Entity USER -->
<g id="entity-USER">
	<g id="frame-USER">
		<rect x="10" y="93" width="102" height="25" fill="#92c5de" stroke="#92c5de" stroke-width="0"/>
		<rect x="10" y="118.0" width="102" height="111" fill="#d1e5f0" stroke="#d1e5f0" stroke-width="0"/>
		<rect x="10" y="93" width="102" height="136" fill="none" stroke="#4393c3" stroke-width="2"/>
		<line x1="10" y1="118" x2="112" y2="118" stroke="#4393c3" stroke-width="1"/>
	</g>
	<text x="44" y="110.7" fill="#000000" font-family="Verdana" font-size="12">USER</text>
	<text x="15" y="135.7" fill="#000000" font-family="Verdana" font-size="12">first_name</text>
	<text x="15" y="152.7" fill="#000000" font-family="Verdana" font-size="12">last_name</text>
	<text x="15" y="169.8" fill="#000000" font-family="Verdana" font-size="12">address</text>
	<text x="15" y="186.8" fill="#000000" font-family="Verdana" font-size="12">email</text>
	<text x="15" y="203.8" fill="#000000" font-family="Verdana" font-size="12">phone_number</text>
	<text x="15" y="220.8" fill="#000000" font-family="Verdana" font-size="12">password</text>
</g>

<!-- Entity BOOKING -->
<g id="entity-BOOKING">
	<g id="frame-BOOKING">
		<rect x="146" y="245" width="70" height="25" fill="#92c5de" stroke="#92c5de" stroke-width="0"/>
		<rect x="146" y="270.0" width="70" height="43" fill="#d1e5f0" stroke="#d1e5f0" stroke-width="0"/>
		<rect x="146" y="245" width="70" height="68" fill="none" stroke="#4393c3" stroke-width="2"/>
		<line x1="146" y1="270" x2="216" y2="270" stroke="#4393c3" stroke-width="1"/>
	</g>
	<text x="151" y="262.7" fill="#000000" font-family="Verdana" font-size="12">BOOKING</text>
	<text x="151" y="287.8" fill="#000000" font-family="Verdana" font-size="12">begin</text>
	<text x="151" y="304.8" fill="#000000" font-family="Verdana" font-size="12">end</text>
</g>
</svg>